<?xml version="1.0" standalone="no"?>
<!DOCTYPE svg PUBLIC "-//W3C//DTD SVG 20010904//EN"
 "http://www.w3.org/TR/2001/REC-SVG-20010904/DTD/svg10.dtd">
<svg version="1.0" xmlns="http://www.w3.org/2000/svg"
 width="480.000000pt" height="360.000000pt" viewBox="0 0 480.000000 360.000000"
 preserveAspectRatio="xMidYMid meet">
<metadata>
Created by potrace 1.16, written by Peter Selinger 2001-2019
</metadata>
<g transform="translate(0.000000,360.000000) scale(0.100000,-0.100000)"
fill="#000000" stroke="none">
<path d="M1923 2034 c-3 -9 4 -39 16 -68 l21 -51 -25 -18 c-33 -24 -32 -43 6
-78 26 -24 29 -31 19 -50 -10 -17 -9 -23 1 -30 19 -12 56 -11 80 1 14 8 33 6
72 -5 28 -9 87 -18 129 -22 l78 -6 -46 -49 c-25 -27 -44 -54 -41 -61 2 -7 29
-13 72 -15 59 -3 72 0 107 23 37 25 45 26 109 20 81 -8 99 1 99 51 l0 34 128
0 c186 0 282 31 282 90 0 21 -10 37 -37 59 -66 54 -109 64 -313 69 l-184 4
-57 39 c-54 36 -63 39 -128 39 -39 0 -73 -5 -77 -11 -3 -6 6 -23 20 -38 14
-15 23 -30 19 -34 -3 -4 -34 -7 -68 -7 l-63 0 -57 65 c-55 64 -58 65 -106 65
-36 0 -51 -4 -56 -16z m108 -13 c13 -10 44 -44 69 -74 24 -31 47 -52 51 -46 4
7 125 11 350 12 310 2 349 0 397 -16 28 -10 52 -22 52 -26 0 -4 -15 -11 -32
-16 -23 -7 -34 -17 -36 -32 -3 -20 1 -23 28 -23 17 0 46 7 66 15 31 13 36 13
41 -2 20 -52 -69 -85 -249 -91 -178 -6 -213 5 -111 35 l48 13 -41 -4 c-31 -3
-71 -24 -165 -87 -117 -78 -127 -83 -186 -87 -82 -6 -82 5 2 88 36 35 65 69
65 74 0 5 -11 -1 -25 -14 -22 -21 -31 -22 -92 -17 -86 7 -173 26 -173 37 0 5
16 18 36 30 19 12 33 25 30 27 -3 3 -30 -11 -60 -31 -41 -27 -65 -36 -97 -36
l-43 0 30 32 c18 19 23 29 12 25 -22 -8 -68 29 -68 53 0 20 32 44 44 33 13
-14 5 17 -20 71 -14 31 -23 60 -19 66 10 17 71 11 96 -9z"/>
</g>
</svg>
